<mxfile host="Electron" modified="2024-12-20T20:48:42.089Z" agent="Mozilla/5.0 (Windows NT 10.0; Win64; x64) AppleWebKit/537.36 (KHTML, like Gecko) draw.io/24.4.6 Chrome/124.0.6367.207 Electron/30.0.6 Safari/537.36" etag="lAjOVY0u23IyQNAO9-wI" version="24.4.6" type="device">
  <diagram name="Seite-1" id="gL9hvvjmQZCc3Tp8m-pr">
    <mxGraphModel dx="1038" dy="608" grid="1" gridSize="10" guides="1" tooltips="1" connect="1" arrows="1" fold="1" page="1" pageScale="1" pageWidth="827" pageHeight="1169" math="0" shadow="0">
      <root>
        <mxCell id="0" />
        <mxCell id="1" parent="0" />
        <mxCell id="qYtRX_-r9HBOpN1KKJ53-1" value="" style="whiteSpace=wrap;html=1;aspect=fixed;" parent="1" vertex="1">
          <mxGeometry x="150" y="30" width="490" height="490" as="geometry" />
        </mxCell>
        <mxCell id="qYtRX_-r9HBOpN1KKJ53-2" value="MealPrep" style="text;html=1;align=center;verticalAlign=middle;whiteSpace=wrap;rounded=0;" parent="1" vertex="1">
          <mxGeometry x="365" y="40" width="60" height="30" as="geometry" />
        </mxCell>
        <mxCell id="qYtRX_-r9HBOpN1KKJ53-3" value="" style="shape=actor;whiteSpace=wrap;html=1;" parent="1" vertex="1">
          <mxGeometry x="60" y="120" width="40" height="60" as="geometry" />
        </mxCell>
        <mxCell id="qYtRX_-r9HBOpN1KKJ53-4" value="" style="shape=actor;whiteSpace=wrap;html=1;" parent="1" vertex="1">
          <mxGeometry x="730" y="150" width="40" height="60" as="geometry" />
        </mxCell>
        <mxCell id="qYtRX_-r9HBOpN1KKJ53-6" value="User" style="text;html=1;align=center;verticalAlign=middle;whiteSpace=wrap;rounded=0;" parent="1" vertex="1">
          <mxGeometry x="60" y="80" width="60" height="30" as="geometry" />
        </mxCell>
        <mxCell id="qYtRX_-r9HBOpN1KKJ53-7" value="unregistrierter user" style="text;html=1;align=center;verticalAlign=middle;whiteSpace=wrap;rounded=0;" parent="1" vertex="1">
          <mxGeometry x="710" y="90" width="60" height="30" as="geometry" />
        </mxCell>
        <mxCell id="qYtRX_-r9HBOpN1KKJ53-8" value="Registrieren" style="rounded=0;whiteSpace=wrap;html=1;" parent="1" vertex="1">
          <mxGeometry x="490" y="110" width="120" height="60" as="geometry" />
        </mxCell>
        <mxCell id="qYtRX_-r9HBOpN1KKJ53-11" value="Präferenzen eingeben" style="rounded=0;whiteSpace=wrap;html=1;" parent="1" vertex="1">
          <mxGeometry x="220" y="180" width="120" height="60" as="geometry" />
        </mxCell>
        <mxCell id="qYtRX_-r9HBOpN1KKJ53-12" value="Shoppingliste anschauen" style="rounded=0;whiteSpace=wrap;html=1;" parent="1" vertex="1">
          <mxGeometry x="290" y="260" width="120" height="60" as="geometry" />
        </mxCell>
        <mxCell id="qYtRX_-r9HBOpN1KKJ53-13" value="Rezepte lesen" style="rounded=0;whiteSpace=wrap;html=1;" parent="1" vertex="1">
          <mxGeometry x="340" y="100" width="120" height="60" as="geometry" />
        </mxCell>
        <mxCell id="qYtRX_-r9HBOpN1KKJ53-15" value="" style="endArrow=none;html=1;rounded=0;exitX=0;exitY=0.75;exitDx=0;exitDy=0;entryX=1;entryY=0.5;entryDx=0;entryDy=0;" parent="1" source="qYtRX_-r9HBOpN1KKJ53-4" target="qYtRX_-r9HBOpN1KKJ53-8" edge="1">
          <mxGeometry width="50" height="50" relative="1" as="geometry">
            <mxPoint x="110" y="390" as="sourcePoint" />
            <mxPoint x="160" y="340" as="targetPoint" />
          </mxGeometry>
        </mxCell>
        <mxCell id="qYtRX_-r9HBOpN1KKJ53-17" value="" style="endArrow=none;html=1;rounded=0;exitX=0.75;exitY=1;exitDx=0;exitDy=0;entryX=0;entryY=0.5;entryDx=0;entryDy=0;" parent="1" source="qYtRX_-r9HBOpN1KKJ53-3" target="qYtRX_-r9HBOpN1KKJ53-11" edge="1">
          <mxGeometry width="50" height="50" relative="1" as="geometry">
            <mxPoint x="110" y="205" as="sourcePoint" />
            <mxPoint x="260" y="160" as="targetPoint" />
          </mxGeometry>
        </mxCell>
        <mxCell id="qYtRX_-r9HBOpN1KKJ53-18" value="" style="endArrow=none;html=1;rounded=0;exitX=0.75;exitY=1;exitDx=0;exitDy=0;entryX=0;entryY=0.5;entryDx=0;entryDy=0;" parent="1" source="qYtRX_-r9HBOpN1KKJ53-3" target="qYtRX_-r9HBOpN1KKJ53-12" edge="1">
          <mxGeometry width="50" height="50" relative="1" as="geometry">
            <mxPoint x="110" y="190" as="sourcePoint" />
            <mxPoint x="200" y="260" as="targetPoint" />
          </mxGeometry>
        </mxCell>
        <mxCell id="qYtRX_-r9HBOpN1KKJ53-19" value="" style="endArrow=none;html=1;rounded=0;exitX=1;exitY=0.75;exitDx=0;exitDy=0;entryX=0;entryY=0.5;entryDx=0;entryDy=0;" parent="1" source="qYtRX_-r9HBOpN1KKJ53-3" target="qYtRX_-r9HBOpN1KKJ53-13" edge="1">
          <mxGeometry width="50" height="50" relative="1" as="geometry">
            <mxPoint x="110" y="190" as="sourcePoint" />
            <mxPoint x="200" y="350" as="targetPoint" />
          </mxGeometry>
        </mxCell>
        <mxCell id="h3QU0kVnyaoFqKVtq7bC-1" value="" style="shape=actor;whiteSpace=wrap;html=1;" vertex="1" parent="1">
          <mxGeometry x="60" y="370" width="40" height="60" as="geometry" />
        </mxCell>
        <mxCell id="h3QU0kVnyaoFqKVtq7bC-2" value="User verwalten" style="rounded=0;whiteSpace=wrap;html=1;" vertex="1" parent="1">
          <mxGeometry x="190" y="340" width="120" height="60" as="geometry" />
        </mxCell>
        <mxCell id="h3QU0kVnyaoFqKVtq7bC-4" value="Rezepte erstellen" style="rounded=0;whiteSpace=wrap;html=1;" vertex="1" parent="1">
          <mxGeometry x="440" y="450" width="120" height="60" as="geometry" />
        </mxCell>
        <mxCell id="h3QU0kVnyaoFqKVtq7bC-6" value="Mealplan auswählen" style="rounded=0;whiteSpace=wrap;html=1;" vertex="1" parent="1">
          <mxGeometry x="200" y="60" width="120" height="60" as="geometry" />
        </mxCell>
        <mxCell id="h3QU0kVnyaoFqKVtq7bC-8" value="Rezepte den Mealplan zuteilen" style="rounded=0;whiteSpace=wrap;html=1;" vertex="1" parent="1">
          <mxGeometry x="400" y="380" width="120" height="60" as="geometry" />
        </mxCell>
        <mxCell id="h3QU0kVnyaoFqKVtq7bC-10" value="Admin" style="text;html=1;align=center;verticalAlign=middle;whiteSpace=wrap;rounded=0;" vertex="1" parent="1">
          <mxGeometry x="50" y="340" width="60" height="30" as="geometry" />
        </mxCell>
        <mxCell id="h3QU0kVnyaoFqKVtq7bC-12" value="" style="endArrow=none;html=1;rounded=0;exitX=0.9;exitY=0.5;exitDx=0;exitDy=0;exitPerimeter=0;entryX=0;entryY=0.5;entryDx=0;entryDy=0;" edge="1" parent="1" source="qYtRX_-r9HBOpN1KKJ53-3" target="h3QU0kVnyaoFqKVtq7bC-6">
          <mxGeometry width="50" height="50" relative="1" as="geometry">
            <mxPoint x="120" y="140" as="sourcePoint" />
            <mxPoint x="170" y="90" as="targetPoint" />
          </mxGeometry>
        </mxCell>
        <mxCell id="h3QU0kVnyaoFqKVtq7bC-13" value="" style="endArrow=none;html=1;rounded=0;exitX=0;exitY=0.5;exitDx=0;exitDy=0;entryX=0.9;entryY=0.5;entryDx=0;entryDy=0;entryPerimeter=0;" edge="1" parent="1" source="h3QU0kVnyaoFqKVtq7bC-2" target="h3QU0kVnyaoFqKVtq7bC-1">
          <mxGeometry width="50" height="50" relative="1" as="geometry">
            <mxPoint x="480" y="85" as="sourcePoint" />
            <mxPoint x="574" y="25" as="targetPoint" />
          </mxGeometry>
        </mxCell>
        <mxCell id="h3QU0kVnyaoFqKVtq7bC-14" value="" style="endArrow=none;html=1;rounded=0;exitX=0;exitY=0.5;exitDx=0;exitDy=0;entryX=1;entryY=0.75;entryDx=0;entryDy=0;" edge="1" parent="1" source="h3QU0kVnyaoFqKVtq7bC-8" target="h3QU0kVnyaoFqKVtq7bC-1">
          <mxGeometry width="50" height="50" relative="1" as="geometry">
            <mxPoint x="610" y="150" as="sourcePoint" />
            <mxPoint x="720" y="165" as="targetPoint" />
          </mxGeometry>
        </mxCell>
        <mxCell id="h3QU0kVnyaoFqKVtq7bC-15" value="" style="endArrow=none;html=1;rounded=0;entryX=0.5;entryY=1;entryDx=0;entryDy=0;exitX=0;exitY=0.5;exitDx=0;exitDy=0;" edge="1" parent="1" source="h3QU0kVnyaoFqKVtq7bC-4" target="h3QU0kVnyaoFqKVtq7bC-1">
          <mxGeometry width="50" height="50" relative="1" as="geometry">
            <mxPoint x="680" y="340" as="sourcePoint" />
            <mxPoint x="730" y="180" as="targetPoint" />
            <Array as="points" />
          </mxGeometry>
        </mxCell>
        <mxCell id="h3QU0kVnyaoFqKVtq7bC-16" value="" style="shape=flexArrow;endArrow=classic;html=1;rounded=0;" edge="1" parent="1">
          <mxGeometry width="50" height="50" relative="1" as="geometry">
            <mxPoint x="79.5" y="210" as="sourcePoint" />
            <mxPoint x="79.5" y="320" as="targetPoint" />
          </mxGeometry>
        </mxCell>
      </root>
    </mxGraphModel>
  </diagram>
</mxfile>
